<svg width="471" height="512" fill="none" xmlns="http://www.w3.org/2000/svg"><path fill-rule="evenodd" clip-rule="evenodd" d="M295.251 491.486c17.321-13.001 29.38-31.318 34.847-51.564l132.763-304.801c21.084-48.408-1.065-104.743-49.472-125.827l-3.021-1.316C361.96-13.107 305.626 9.042 284.541 57.45l-49.122 112.776L186.298 57.45C165.213 9.042 108.878-13.107 60.471 7.978L57.45 9.294C9.042 30.378-13.107 86.714 7.978 135.12L140.74 439.922c5.467 20.247 17.528 38.565 34.85 51.566 16.963 13.338 38.108 20.648 59.824 20.51 21.721.14 42.871-7.17 59.837-20.512ZM69.381 36.684l3.02-1.316c33.28-14.496 72.01.732 86.506 34.012l60.219 138.253-73.489 168.718L35.368 123.19C20.872 89.91 36.1 51.18 69.38 36.684ZM193.78 467.776c-8.13-6.47-14.84-14.967-19.278-25.156l-5.407-12.413c-3.176-13.365-2.205-27.834 3.703-41.397l62.621-143.77 62.622 143.77c5.908 13.563 6.878 28.033 3.702 41.397l-5.407 12.413c-4.437 10.188-11.146 18.684-19.275 25.154a65.895 65.895 0 0 1-13.032 7.542l-3.021 1.316c-8.344 3.634-17.031 5.4-25.593 5.481-8.559-.082-17.243-1.848-25.584-5.481l-3.021-1.316a65.921 65.921 0 0 1-13.03-7.54Zm57.933-260.143L311.931 69.38c14.496-33.28 53.226-48.507 86.506-34.012l3.021 1.316c33.28 14.496 48.508 53.226 34.012 86.506L325.201 376.351l-73.488-168.718Z" fill="#fff"/></svg>